<svg xmlns="http://www.w3.org/2000/svg" width="32" height="40" viewBox="0 0 32 40">
  <defs>
    <filter id="shadow" x="-20%" y="-10%" width="140%" height="130%">
      <feDropShadow dx="0" dy="1" stdDeviation="1.5" flood-color="#000" flood-opacity="0.3"/>
    </filter>
  </defs>
  <path d="M16 0C7.163 0 0 7.163 0 16c0 11 16 24 16 24s16-13 16-24C32 7.163 24.837 0 16 0z" fill="#1B3FBF" filter="url(#shadow)"/>
  <circle cx="16" cy="14" r="7" fill="#E8A317"/>
  <path d="M16 10.5c-1.93 0-3.5 1.57-3.5 3.5s1.57 3.5 3.5 3.5 3.5-1.57 3.5-3.5-1.57-3.5-3.5-3.5zm0 5.25c-.966 0-1.75-.784-1.75-1.75s.784-1.75 1.75-1.75 1.75.784 1.75 1.75-.784 1.75-1.75 1.75z" fill="#1B3FBF"/>
</svg>
